<svg width="512" height="512" viewBox="0 0 512 512" fill="none" xmlns="http://www.w3.org/2000/svg">
<rect width="512" height="512" rx="128" fill="hsl(225 73% 57%)"/>
<g transform="translate(100, 100) scale(0.6)">
<path d="M410.75 251.25C410.75 233.91 405.06 216.57 393.68 205.19C382.3 193.81 364.96 188.12 347.62 188.12C330.28 188.12 312.94 193.81 301.56 205.19C290.18 216.57 284.49 233.91 284.49 251.25C284.49 268.59 290.18 285.93 301.56 297.31C312.94 308.69 330.28 314.38 347.62 314.38C364.96 314.38 382.3 308.69 393.68 297.31C405.06 285.93 410.75 268.59 410.75 251.25Z" fill="hsl(210 40% 98%)"/>
<path d="M227.51 188.12H164.38C147.04 188.12 129.7 193.81 118.32 205.19C106.94 216.57 101.25 233.91 101.25 251.25C101.25 268.59 106.94 285.93 118.32 297.31C129.7 308.69 147.04 314.38 164.38 314.38H227.51V188.12Z" fill="hsl(210 40% 98%)"/>
<path d="M256 314.38V410.75C256.023 415.022 255.271 419.266 253.79 423.25C253.075 425.148 252.126 426.938 250.96 428.56C243.25 438.88 229.87 443.51 216.25 441.51C202.63 439.51 190.87 430.99 185.34 418.82C184.205 415.898 183.565 412.83 183.44 409.72C183.39 408.23 183.56 406.75 183.94 405.34C188.13 389.87 197.88 376.88 211.56 368.69C225.24 360.5 241.63 357.81 257.25 361.12" stroke="hsl(210 40% 98%)" stroke-width="0" stroke-linecap="round" stroke-linejoin="round"/>
<path d="M256 410.75C256 347.62 256 314.38 256 314.38" stroke="hsl(210 40% 98%)" stroke-width="0" stroke-linecap="round"/>
<path d="M256 314.38C265.89 324.27 278.13 330.13 291.25 330.13C313.38 330.13 331.25 312.26 331.25 290.13C331.25 281.82 328.84 274.04 324.59 267.7C320.34 261.36 314.51 256.77 307.75 254.49" stroke="hsl(210 40% 98%)" stroke-width="0" stroke-linecap="round" stroke-linejoin="round"/>
<path d="M256 314.38C246.11 324.27 233.87 330.13 220.75 330.13C198.62 330.13 180.75 312.26 180.75 290.13C180.75 281.82 183.16 274.04 187.41 267.7C191.66 261.36 197.49 256.77 204.25 254.49" stroke="hsl(210 40% 98%)" stroke-width="0" stroke-linecap="round" stroke-linejoin="round"/>
</g>
</svg>
