<svg width="512" height="512" viewBox="0 0 512 512" fill="none" xmlns="http://www.w3.org/2000/svg">
<path d="M407.834 512H104.166C46.625 512 0 465.375 0 407.834V104.166C0 46.625 46.625 0 104.166 0H407.834C465.375 0 512 46.625 512 104.166V407.834C512 465.375 465.375 512 407.834 512Z" fill="hsl(var(--background))"/>
<path d="M256 160C238.4 160 224 145.6 224 128C224 110.4 238.4 96 256 96C273.6 96 288 110.4 288 128C288 145.6 273.6 160 256 160ZM256 106.667C246.72 106.667 239.04 114.4 239.04 123.733V132.267C239.04 141.6 246.72 149.333 256 149.333C265.28 149.333 272.96 141.6 272.96 132.267V123.733C272.96 114.4 265.28 106.667 256 106.667Z" fill="hsl(var(--foreground))"/>
<path d="M352 192C342.72 192 335.04 184.267 335.04 174.933V166.4C335.04 157.067 342.72 149.333 352 149.333C361.28 149.333 368.96 157.067 368.96 166.4V174.933C368.96 184.267 361.28 192 352 192ZM352 160C347.36 160 343.68 163.733 343.68 168.533V172.4C343.68 177.2 347.36 181.333 352 181.333C356.64 181.333 360.32 177.2 360.32 172.4V168.533C360.32 163.733 356.64 160 352 160Z" fill="hsl(var(--foreground))"/>
<path d-original="M160 192C150.72 192 143.04 184.267 143.04 174.933V166.4C143.04 157.067 150.72 149.333 160 149.333C169.28 149.333 176.96 157.067 176.96 166.4V174.933C176.96 184.267 169.28 192 160 192ZM160 160C155.36 160 151.68 163.733 151.68 168.533V172.4C151.68 177.2 155.36 181.333 160 181.333C164.64 181.333 168.32 177.2 168.32 172.4V168.533C168.32 163.733 164.64 160 160 160Z" d="M160 192C150.72 192 143.04 184.267 143.04 174.933V166.4C143.04 157.067 150.72 149.333 160 149.333C169.28 149.333 176.96 157.067 176.96 166.4V174.933C176.96 184.267 169.28 192 160 192ZM160 160C155.36 160 151.68 163.733 151.68 168.533V172.4C151.68 177.2 155.36 181.333 160 181.333C164.64 181.333 168.32 177.2 168.32 172.4V168.533C168.32 163.733 155.36 160 160 160Z" fill="hsl(var(--foreground))"/>
<path d-original="M320 288C310.72 288 303.04 280.267 303.04 270.933V262.4C303.04 253.067 310.72 245.333 320 245.333C329.28 245.333 336.96 253.067 336.96 262.4V270.933C336.96 280.267 329.28 288 320 288ZM320 256C315.36 256 311.68 259.733 311.68 264.533V268.4C311.68 273.2 315.36 277.333 320 277.333C324.64 277.333 328.32 273.2 328.32 268.4V264.533C328.32 259.733 324.64 256 320 256Z" d="M320 149.333C310.72 149.333 303.04 141.6 303.04 132.267V123.733C303.04 114.4 310.72 106.667 320 106.667C329.28 106.667 336.96 114.4 336.96 123.733V132.267C336.96 141.6 329.28 149.333 320 149.333ZM320 117.333C315.36 117.333 311.68 121.067 311.68 125.867V129.733C311.68 134.533 315.36 138.667 320 138.667C324.64 138.667 328.32 134.533 328.32 129.733V125.867C328.32 121.067 324.64 117.333 320 117.333Z" fill="hsl(var(--foreground))"/>
<path d-original="M192 288C182.72 288 175.04 280.267 175.04 270.933V262.4C175.04 253.067 182.72 245.333 192 245.333C201.28 245.333 208.96 253.067 208.96 262.4V270.933C208.96 280.267 201.28 288 192 288ZM192 256C187.36 256 183.68 259.733 183.68 264.533V268.4C183.68 273.2 187.36 277.333 192 277.333C196.64 277.333 200.32 273.2 200.32 268.4V264.533C200.32 259.733 196.64 256 192 256Z" d="M192 149.333C182.72 149.333 175.04 141.6 175.04 132.267V123.733C175.04 114.4 182.72 106.667 192 106.667C201.28 106.667 208.96 114.4 208.96 123.733V132.267C208.96 141.6 201.28 149.333 192 149.333ZM192 117.333C187.36 117.333 183.68 121.067 183.68 125.867V129.733C183.68 134.533 187.36 138.667 192 138.667C196.64 138.667 200.32 134.533 200.32 129.733V125.867C200.32 121.067 196.64 117.333 192 117.333Z" fill="hsl(var(--foreground))"/>
<path d="M341.333 384H170.667C161.387 384 153.6 376.267 153.6 366.933V358.4C153.6 349.067 161.387 341.333 170.667 341.333H341.333C350.613 341.333 358.4 349.067 358.4 358.4V366.933C358.4 376.267 350.613 384 341.333 384ZM170.667 352C165.92 352 162.24 355.733 162.24 360.533V364.4C162.24 369.2 165.92 373.333 170.667 373.333H341.333C345.973 373.333 349.76 369.2 349.76 364.4V360.533C349.76 355.733 345.973 352 341.333 352H170.667Z" fill="hsl(var(--foreground))"/>
<path d="M394.667 416H117.333C108.053 416 100.267 408.267 100.267 398.933V390.4C100.267 381.067 108.053 373.333 117.333 373.333H394.667C403.947 373.333 411.733 381.067 411.733 390.4V398.933C411.733 408.267 403.947 416 394.667 416ZM117.333 384C112.693 384 108.907 387.733 108.907 392.533V396.4C108.907 401.2 112.693 405.333 117.333 405.333H394.667C399.307 405.333 403.093 401.2 403.093 396.4V392.533C403.093 387.733 399.307 384 394.667 384H117.333Z" fill="hsl(var(--foreground))"/>
<path d="M312.32 341.333H200.32C195.573 341.333 192 337.6 192 332.8V307.2C192 284.8 209.6 266.667 232.32 266.667H280.32C302.933 266.667 320.64 284.8 320.64 307.2V332.8C320.64 337.6 317.067 341.333 312.32 341.333ZM200.32 277.333C214.507 277.333 226.56 289.6 226.56 304V330.667H286.08V304C286.08 289.6 298.133 277.333 312.32 277.333H200.32Z" fill="hsl(var(--foreground))"/>
<path d="M280.32 266.667H232.32C209.6 266.667 192 248.533 192 226.133V192H213.333V226.133C213.333 236.8 221.653 245.333 232.32 245.333H280.32C290.987 245.333 299.307 236.8 299.307 226.133V192H320.64V226.133C320.64 248.533 302.933 266.667 280.32 266.667Z" fill="hsl(var(--foreground))"/>
</svg>
