<svg width="512" height="512" viewBox="0 0 24 24" fill="none" xmlns="http://www.w3.org/2000/svg">
<path d="M12 22C17.5228 22 22 17.5228 22 12C22 6.47715 17.5228 2 12 2C6.47715 2 2 6.47715 2 12C2 17.5228 6.47715 22 12 22Z" stroke="currentColor" stroke-width="1.5" stroke-linecap="round" stroke-linejoin="round"/>
<path d="M8.5 10.5C9.32843 10.5 10 9.82843 10 9C10 8.17157 9.32843 7.5 8.5 7.5C7.67157 7.5 7 8.17157 7 9C7 9.82843 7.67157 10.5 8.5 10.5Z" fill="currentColor"/>
<path d="M15.5 10.5C16.3284 10.5 17 9.82843 17 9C17 8.17157 16.3284 7.5 15.5 7.5C14.6716 7.5 14 8.17157 14 9C14 9.82843 14.6716 10.5 15.5 10.5Z" fill="currentColor"/>
<path d="M11 14.5C11.8284 14.5 12.5 13.8284 12.5 13C12.5 12.1716 11.8284 11.5 11 11.5C10.1716 11.5 9.5 12.1716 9.5 13C9.5 13.8284 10.1716 14.5 11 14.5Z" fill="currentColor"/>
<path d="M13 14.5C13.8284 14.5 14.5 13.8284 14.5 13C14.5 12.1716 13.8284 11.5 13 11.5C12.1716 11.5 11.5 12.1716 11.5 13C11.5 13.8284 12.1716 14.5 13 14.5Z" fill="currentColor"/>
<path d="M11 16.5C11.8284 16.5 12.5 15.8284 12.5 15C12.5 14.1716 11.8284 13.5 11 13.5C10.1716 13.5 9.5 14.1716 9.5 15C9.5 15.8284 10.1716 16.5 11 16.5Z" fill="currentColor"/>
<path d="M13.0002 16.5C13.8286 16.5 14.5002 15.8284 14.5002 15C14.5002 14.1716 13.8286 13.5 13.0002 13.5C12.1718 13.5 11.5002 14.1716 11.5002 15C11.5002 15.8284 12.1718 16.5 13.0002 16.5Z" fill="currentColor"/>
<path d="M12 12.5C14.2091 12.5 16 14.2909 16 16.5C16 18.7091 14.2091 20.5 12 20.5C9.79086 20.5 8 18.7091 8 16.5C8 14.2909 9.79086 12.5 12 12.5Z" fill="currentColor"/>
</svg>
